# xmcd
#
# Track frame offsets: 
#        150
#        22611
#        39753
#        48684
#        59710
#        82396
#        122739
#        138917
#        163162
#        183975
#        194601
#        215591
#        235007
#
# Disc length: 3349 seconds
#
# Revision: 1
# Processed by: cddbd v1.5.2PL0 Copyright (c) Steve Scherf et al.
# Submitted via: ExactAudioCopy v1.3
#
DISCID=b90d130d
DTITLE=Kool and the Gang - Greatest Hits Live
DYEAR=2005
DGENRE=Blues
TTITLE0=Victory (live)
TTITLE1=Ladies Night (live)
TTITLE2=Fresh (live) 
TTITLE3=Take My Heart (You Can Have It, live)
TTITLE4=Hollywood Swinging (live)
TTITLE5=Too Hot (live)
TTITLE6=Joanna (live)
TTITLE7=Cherish (live) 
TTITLE8=Let's Go Dancin' (Ooh La La La, live)
TTITLE9=Get Down On It (live) 
TTITLE10=Celebration (live)
TTITLE11=Tonight (live)
TTITLE12=Emergency (live) 
EXTD=
EXTT0=
EXTT1=
EXTT2=
EXTT3=
EXTT4=
EXTT5=
EXTT6=
EXTT7=
EXTT8=
EXTT9=
EXTT10=
EXTT11=
EXTT12=
PLAYORDER=
